<mxfile host="app.diagrams.net" modified="2021-09-24T06:27:29.357Z" agent="5.0 (Macintosh; Intel Mac OS X 10_15_7) AppleWebKit/605.1.15 (KHTML, like Gecko) Version/13.1.3 Safari/605.1.15" etag="_GmhoXZQGiG5nyBTQ-gA" version="14.5.8" type="github">
  <diagram id="4PpXCW7olVrxSZSKQI_L" name="Page-1">
    <mxGraphModel dx="1064" dy="744" grid="0" gridSize="10" guides="1" tooltips="1" connect="1" arrows="1" fold="1" page="1" pageScale="1" pageWidth="827" pageHeight="1169" math="0" shadow="0">
      <root>
        <mxCell id="0" />
        <mxCell id="1" parent="0" />
        <mxCell id="b-yw0zgqSB7hZuDckbPi-1" value="" style="rounded=0;whiteSpace=wrap;html=1;" vertex="1" parent="1">
          <mxGeometry x="376" y="184" width="210" height="31" as="geometry" />
        </mxCell>
        <mxCell id="b-yw0zgqSB7hZuDckbPi-2" value="" style="rounded=0;whiteSpace=wrap;html=1;" vertex="1" parent="1">
          <mxGeometry x="376" y="257" width="210" height="30" as="geometry" />
        </mxCell>
        <mxCell id="b-yw0zgqSB7hZuDckbPi-3" value="&lt;font style=&quot;font-size: 24px&quot;&gt;catalogId:&lt;/font&gt;" style="text;html=1;resizable=0;autosize=1;align=center;verticalAlign=middle;points=[];fillColor=none;strokeColor=none;rounded=0;" vertex="1" parent="1">
          <mxGeometry x="228" y="184" width="115" height="22" as="geometry" />
        </mxCell>
        <mxCell id="b-yw0zgqSB7hZuDckbPi-4" value="&lt;font style=&quot;font-size: 24px&quot;&gt;externalSkuId:&lt;/font&gt;" style="text;html=1;resizable=0;autosize=1;align=center;verticalAlign=middle;points=[];fillColor=none;strokeColor=none;rounded=0;" vertex="1" parent="1">
          <mxGeometry x="180" y="259" width="166" height="22" as="geometry" />
        </mxCell>
        <mxCell id="b-yw0zgqSB7hZuDckbPi-5" value="&lt;font style=&quot;font-size: 18px&quot;&gt;查询&lt;/font&gt;" style="rounded=1;whiteSpace=wrap;html=1;fillColor=#9AC7BF;" vertex="1" parent="1">
          <mxGeometry x="651" y="256" width="95" height="33" as="geometry" />
        </mxCell>
        <mxCell id="b-yw0zgqSB7hZuDckbPi-6" value="&lt;font style=&quot;font-size: 36px&quot;&gt;中央商品库商品变更流水查询&lt;/font&gt;" style="text;html=1;resizable=0;autosize=1;align=center;verticalAlign=middle;points=[];fillColor=none;strokeColor=none;rounded=0;" vertex="1" parent="1">
          <mxGeometry x="16" y="25" width="473" height="26" as="geometry" />
        </mxCell>
      </root>
    </mxGraphModel>
  </diagram>
</mxfile>
